<svg xmlns="http://www.w3.org/2000/svg" viewBox="0.0 0.0 1640.63 1580.24" width="322.2637978043043" height="310.3047896826602">
  <defs>
    <style>
      .cls-1, .cls-2 {
        fill: #ff9100;
      }

      .cls-3 {
        fill: #10044a;
      }

      .cls-3, .cls-2 {
        fill-rule: evenodd;
      }

      .cls-4 {
        isolation: isolate;
      }
    </style>
  </defs>
  <g>
    <g>
      <path class="cls-3" d="M937.61,588.18c-1.85-4.34-6.6-6.46-10.6-4.75l-206.87,88.39,169.72-145.33c10.97-10.36,8.37-24.25,4-35.67,0,0-5.85-15.86-8.71-22.56-38.86-91.07-138.13-76.45-192.22-45.47l-87.58,50.17c-44.96,25.75-105.77,94.52-78.71,169.34l3.36,9.43c1.28,3.54,4.43,5.39,7.05,4.15l80.07-38.54c2.87-1.37,4.07-3.84,2.69-9.19-4.02-16.89,8.33-35.33,24.55-43.21l93.85-47.58c10.76-5.47,23.63-7.92,37.64-3.71l-183.14,171.21c-22.58,21.09-28.98,59.99-16.05,95.74l16.36,45.25c1.35,3.72,4.68,5.92,7.46,4.9l375.62-135.94c4.17-1.52,6-6.38,4.1-10.85l-42.59-95.78Z"/>
      <path class="cls-3" d="M466.1,561.89c-1.23-3.43-4.61-4.86-7.53-3.2l-71.13,40.54c-2.65,1.51-3.87,5.38-2.74,8.66l16.15,46.93c5.81,17.44,3.4,34.71-5.34,40.03l-232.37,116.3c-12.27,6.14-14.74,29.74-5.96,52.39,8.88,22.91,25.95,36.75,38.93,31.26l233.53-98.36c9.3-3.69,21.46,6.28,27.99,23.26l16.91,49.09c1.22,3.55,4.58,5.57,7.51,4.51l78.97-28.57c3.24-1.18,4.8-5.16,3.46-8.89l-98.37-273.95Z"/>
      <path class="cls-3" d="M1402.04,284.22c-60.43-116.34-144.08-185.44-191.7-158.36l-295.81,168.77c-35.21,20.26-28.18,108.63,13.67,205.91,41.85,97.28,108.14,172.8,146.87,158.78l345.14-124.93c53.23-19.71,40.72-136.81-18.17-250.17ZM1280.96,432.7l-189.1,80.64c-16.25,6.81-40.69-26.15-56.57-61.3-15.89-35.14-24.02-73.85-8.69-81.75l179.2-90.74c18.39-9.17,48.1,23.9,66.97,61.7,18.86,37.8,27.52,83.06,8.19,91.45Z"/>
      <path class="cls-2" d="M258.95,636l183.09-341.68-146.61,134.56c45.64-148.57,147.97-251.24,259.51-307.96-2.56,9.79-39.2,225.62-39.2,225.62L717.44,0l57.54,230.06L915.78,8.71l23.26,131.66,178.91-43.01-221.11,138.64-4.67-107.45-59.7,147.81-124.14,77.84-11.69-263.92-109.41,339.85-328.28,205.87Z"/>
      <path class="cls-3" d="M651.95,1129v-129h31v129h-31Z"/>
      <path class="cls-3" d="M769.78,1131c-19.67,0-35.72-5.9-48.16-17.7-12.45-11.79-18.67-27.97-18.67-48.53s5.95-35.75,17.85-48.16c11.89-12.41,28.4-18.61,49.53-18.61s37.99,6.87,50.62,20.62l-19.49,23.17c-8.13-9.73-18.81-14.6-32.05-14.6-9.71,0-17.87,3.41-24.49,10.21-6.62,6.82-9.92,15.94-9.92,27.37,0,10.58,3.21,19.4,9.65,26.46,6.43,7.06,15.29,10.58,26.59,10.58s22.51-4.2,32.23-12.59l17.11,25c-12.38,11.19-29.31,16.78-50.8,16.78Z"/>
      <path class="cls-3" d="M901.78,1131c-19.67,0-35.72-5.9-48.16-17.7-12.45-11.79-18.67-27.97-18.67-48.53s5.95-35.75,17.85-48.16c11.89-12.41,28.4-18.61,49.53-18.61s37.99,6.87,50.62,20.62l-19.49,23.17c-8.13-9.73-18.81-14.6-32.05-14.6-9.71,0-17.87,3.41-24.49,10.21-6.62,6.82-9.92,15.94-9.92,27.37,0,10.58,3.21,19.4,9.65,26.46,6.43,7.06,15.29,10.58,26.59,10.58s22.51-4.2,32.23-12.59l17.11,25c-12.38,11.19-29.31,16.78-50.8,16.78Z"/>
      <path class="cls-3" d="M191.36,1452l-48.41-154h39.29l25.83,96.09h.43l24.32-96.09h36.47l23.66,95.87h.65l26.05-95.87h39.29l-48.84,154h-32.13l-26.27-102.38h-.43l-27.57,102.38h-32.35Z"/>
      <path class="cls-3" d="M447.56,1454c-23.49,0-42.63-7.38-57.42-22.14-14.8-14.75-22.19-33.84-22.19-57.25s7.39-42.54,22.19-57.37c14.79-14.83,33.93-22.24,57.42-22.24s42.23,7.38,57.1,22.14c14.86,14.76,22.29,33.91,22.29,57.47s-7.43,42.68-22.29,57.36c-14.87,14.69-33.9,22.03-57.1,22.03ZM447.56,1420.19c11.89,0,21.75-4.36,29.58-13.08,7.83-8.73,11.75-19.56,11.75-32.5s-3.92-23.77-11.75-32.5c-7.83-8.72-17.69-13.09-29.58-13.09s-21.97,4.4-29.8,13.2c-7.83,8.8-11.74,19.6-11.74,32.39s3.91,23.59,11.74,32.39c7.83,8.8,17.76,13.19,29.8,13.19Z"/>
      <path class="cls-3" d="M675.95,1452h-41.04c-7.97-19.09-19.11-35.64-33.45-49.67h-14.11v49.67h-35.4v-154h60.15c18.82,0,32.72,4.55,41.7,13.66,8.97,9.11,13.46,21.41,13.46,36.88,0,21.54-9.33,36.37-28.01,44.46,14.91,15.91,27.15,35.58,36.7,59ZM605.59,1370.66c7.82,0,13.79-1.77,17.92-5.31,4.12-3.54,6.18-8.57,6.18-15.08s-1.95-11.17-5.86-14.85c-3.91-3.7-9.77-5.54-17.59-5.54h-18.89v40.78h18.24Z"/>
      <path class="cls-3" d="M701.95,1452v-154h37.04v121.68h69.96v32.32h-107Z"/>
      <path class="cls-3" d="M830.95,1452v-154h53.6c24.25,0,43.72,7.12,58.39,21.36,14.67,14.25,22.01,32.86,22.01,55.86s-7.12,41.53-21.36,55.63c-14.23,14.1-33.7,21.15-58.39,21.15h-54.25ZM866.47,1419.68h16.34c13.07,0,23.67-4.23,31.81-12.69,8.13-8.46,12.2-19.05,12.2-31.77s-3.92-23.57-11.77-32.1c-7.84-8.54-17.72-12.8-29.63-12.8h-18.96v89.36h.01Z"/>
      <path class="cls-3" d="M1113.81,1454c-23.5,0-42.69-7.05-57.56-21.16-14.87-14.1-22.3-33.44-22.3-58.01s7.11-42.76,21.32-57.59c14.22-14.83,33.95-22.24,59.19-22.24s45.4,8.21,60.49,24.64l-23.28,27.7c-9.72-11.63-22.49-17.45-38.3-17.45-11.6,0-21.36,4.08-29.27,12.22-7.9,8.14-11.86,19.05-11.86,32.72,0,12.65,3.85,23.19,11.54,31.62,7.69,8.44,18.28,12.65,31.77,12.65s26.9-5.01,38.51-15.05l20.45,29.88c-14.79,13.38-35.03,20.07-60.7,20.07Z"/>
      <path class="cls-3" d="M1255.73,1454c-19.59,0-35.12-5.39-46.58-16.16-11.47-10.78-17.2-26.73-17.2-47.85v-91.99h36.57v89.82c0,9.84,2.36,17.69,7.08,23.54,4.71,5.87,11.43,8.79,20.13,8.79s15.17-2.71,20.25-8.13c5.08-5.43,7.62-13.49,7.62-24.2v-89.82h36.35v91.99c0,20.55-5.59,36.34-16.76,47.41-11.18,11.07-27,16.6-47.46,16.6Z"/>
      <path class="cls-3" d="M1345.95,1452v-154h58.33c18.16,0,31.8,4.81,40.95,14.42,9.15,9.62,13.72,22.53,13.72,38.72s-5.11,29.5-15.34,38.17c-10.23,8.68-24.28,13.02-42.13,13.02h-20.31v49.67h-35.22ZM1381.17,1370.66h16.2c7.92,0,13.94-1.77,18.04-5.31,4.11-3.54,6.16-8.57,6.16-15.08s-1.98-11.17-5.94-14.85c-3.97-3.7-9.83-5.54-17.61-5.54h-16.85v40.78Z"/>
      <path class="cls-2" d="M1330.95,651c-8.49,128.84-67.43,243.83-157.3,325.56l18.39-182.03-160.67,315.47-96.82-260.19-150.74,110.35-83.65-81.19-153.59,199.57-8.6-126.27-172.02,3.6,242.78-76.69-6.95,64.78,93.6-110.55,87.88,47.28,67.67-78.03,167.24-52.84,17.6,252.85,65.02-278.93,230.16-72.74Z"/>
      <path class="cls-3" d="M498.95,1259v-85h14.61l28.27,50.88h.24l28.27-50.88h14.61v85h-14.61v-56.87h-.25l-23.43,40.47h-9.54l-23.43-40.47h-.13v56.87h-14.61Z"/>
      <path class="cls-3" d="M605.95,1259v-85h58.32v12.93h-43.8v23.46h40.08v12.93h-40.08v22.75h45.48v12.93h-60Z"/>
      <path class="cls-3" d="M682.95,1259v-85h14.14l43.99,61.42h.25v-61.42h14.62v85h-14.5l-43.63-60.46h-.24v60.46h-14.63Z"/>
      <path class="cls-3" d="M769.95,1204l3.7-30h14.3l-7.15,30h-10.85Z"/>
      <path class="cls-3" d="M828.09,1260c-12.09,0-22.14-2.8-30.14-8.39l6.84-13.18c7.21,5.59,15.09,8.39,23.66,8.39,4.88,0,8.67-.98,11.35-2.94,2.68-1.96,4.02-4.49,4.02-7.61,0-2.47-.76-4.53-2.28-6.17-1.52-1.64-3.1-2.82-4.74-3.54-1.65-.71-4.83-1.87-9.55-3.47-1.04-.4-1.84-.68-2.4-.84-3.28-1.12-5.79-2-7.51-2.63-1.72-.64-3.92-1.7-6.6-3.18-2.68-1.48-4.73-2.98-6.12-4.49-1.41-1.52-2.65-3.56-3.73-6.12-1.08-2.55-1.62-5.39-1.62-8.51,0-7.66,2.6-13.63,7.81-17.91,5.2-4.27,12-6.41,20.41-6.41,12.25,0,22.21,3.16,29.9,9.47l-8.05,11.86c-2.96-2.48-6.46-4.5-10.5-6.05-4.04-1.56-7.91-2.34-11.59-2.34-3.92,0-7.07.88-9.43,2.64s-3.54,4.23-3.54,7.43c0,2.95,1.16,5.19,3.48,6.71,2.33,1.52,6.61,3.39,12.85,5.63,3.53,1.2,6.17,2.14,7.93,2.82,1.76.68,3.96,1.64,6.6,2.87,2.64,1.24,4.6,2.42,5.88,3.54,1.28,1.12,2.65,2.51,4.09,4.19,1.44,1.68,2.44,3.56,3,5.63.56,2.08.84,4.44.84,7.07,0,17.02-10.29,25.53-30.86,25.53Z"/>
      <path class="cls-3" d="M924.02,1259v-72.07h-24.07v-12.93h63v12.93h-24.44v72.07h-14.49Z"/>
      <path class="cls-3" d="M973.24,1259l-.26-9.78,28.42-29.58c4.2-4.41,7.33-8.22,9.39-11.43,2.06-3.22,3.08-6.61,3.08-10.16,0-3.9-1.26-7.09-3.79-9.59s-6.11-3.75-10.74-3.75c-6.69,0-13.16,2.84-19.42,8.51l-7.97-11.81c9-6.94,18.73-10.41,29.19-10.41,8.15,0,14.83,2.31,20.06,6.92,5.23,4.62,7.85,10.82,7.85,18.6,0,9.66-4.89,19.48-14.66,29.46l-18.65,19.18.13.38h34.08v13.46h-56.71Z"/>
      <path class="cls-3" d="M1073.95,1260c-10.44,0-18.72-3.91-24.83-11.73-6.12-7.82-9.17-18.74-9.17-32.77s2.97-24.32,8.91-32.39c5.95-8.07,14.31-12.11,25.09-12.11s18.82,3.91,24.9,11.73c6.07,7.82,9.1,18.74,9.1,32.77s-2.95,24.22-8.85,32.33c-5.9,8.11-14.28,12.17-25.15,12.17ZM1073.95,1246.31c6.03,0,10.7-2.71,14.01-8.12,3.31-5.4,4.97-12.97,4.97-22.69s-1.68-17.3-5.04-22.76c-3.35-5.45-8-8.17-13.94-8.17s-10.59,2.72-13.94,8.17c-3.36,5.46-5.03,13.04-5.03,22.76s1.69,17.07,5.09,22.57c3.39,5.49,8.02,8.24,13.88,8.24Z"/>
      <g class="cls-4">
        <path class="cls-1" d="M0,1481.02h23.6v97.98H0v-97.98Z"/>
        <path class="cls-1" d="M43.25,1481.02h22.08l40.16,60.58.28-.14v-60.44h22.77v97.98h-22.63l-39.74-59.06h-.28v59.06h-22.63v-97.98Z"/>
        <path class="cls-1" d="M147.16,1481.02h33.95c15.36,0,27.69,4.53,36.98,13.59,9.29,9.06,13.94,20.91,13.94,35.54s-4.51,26.43-13.52,35.4-21.34,13.46-36.98,13.46h-34.36v-97.98ZM180.01,1558.44c8.28,0,15-2.69,20.15-8.07,5.15-5.38,7.73-12.12,7.73-20.22s-2.48-15-7.45-20.42c-4.97-5.43-11.22-8.14-18.77-8.14h-12.01v56.86h10.35Z"/>
        <path class="cls-1" d="M248.87,1481.02h23.6v97.98h-23.6v-97.98Z"/>
        <path class="cls-1" d="M319.32,1481.02h22.08l35.88,97.98h-24.01l-5.8-17.66h-34.22l-5.8,17.66h-24.15l36.02-97.98ZM341.4,1542.02l-10.9-33.12h-.28l-10.76,33.12h21.94Z"/>
        <path class="cls-1" d="M506.61,1579h-24.43l-6.35-6.9h-.28c-2.76,2.39-6.46,4.35-11.11,5.87-4.65,1.52-9.59,2.28-14.83,2.28-9.66,0-17.5-2.6-23.53-7.8-6.03-5.2-9.04-12.12-9.04-20.77,0-11.22,5.47-20.01,16.42-26.36l-1.24-1.24c-4.78-5.34-7.18-11.41-7.18-18.22,0-7.64,2.81-13.92,8.42-18.84,5.61-4.92,12.74-7.38,21.39-7.38s15.32,2.09,20.56,6.28c5.24,4.19,7.87,10,7.87,17.46,0,11.22-6.99,20.01-20.98,26.36l12.97,14.35h.55c1.93-3.96,2.9-8.19,2.9-12.7l19.6-.14c-.18,4.97-1.03,10.1-2.55,15.39-1.52,5.29-3.61,9.64-6.28,13.04v.55l17.11,18.77ZM463.14,1558.02l-18.35-20.29c-4.42,3.04-6.62,6.72-6.62,11.04,0,3.86,1.33,6.88,4,9.04,2.67,2.16,6.16,3.24,10.49,3.24s7.64-.87,10.49-2.62v-.41ZM447.89,1499.86c-1.7,1.52-2.55,3.52-2.55,6,0,3.5,1.61,6.95,4.83,10.35l1.52,1.66c7.54-3.4,11.32-7.68,11.32-12.83,0-2.3-.78-4.12-2.35-5.45-1.56-1.33-3.63-2-6.21-2s-4.85.76-6.55,2.28Z"/>
        <path class="cls-1" d="M541.46,1569.34l9.94-19.32c8.56,6.53,17.2,9.8,25.94,9.8,4.23,0,7.41-.76,9.52-2.28,2.12-1.52,3.17-3.47,3.17-5.87,0-2.58-1.15-4.6-3.45-6.07-2.3-1.47-6.67-3.31-13.11-5.52-3.5-1.2-6.44-2.3-8.83-3.31-2.39-1.01-5.04-2.42-7.94-4.21-2.9-1.79-5.24-3.7-7.04-5.73-1.79-2.02-3.29-4.58-4.48-7.66-1.2-3.08-1.79-6.51-1.79-10.28,0-9.29,3.13-16.47,9.38-21.53,6.26-5.06,14.54-7.59,24.84-7.59,14.08,0,25.53,3.59,34.36,10.76l-12.42,18.49c-7.45-6.07-14.67-9.11-21.67-9.11-3.13,0-5.68.67-7.66,2-1.98,1.33-2.97,3.24-2.97,5.73s1.08,4.39,3.24,6c2.16,1.61,6.23,3.52,12.21,5.73,10.12,3.86,16.88,6.95,20.29,9.25,7.45,5.06,11.18,12.28,11.18,21.67,0,10.3-3.43,17.87-10.28,22.7-6.85,4.83-15.75,7.25-26.7,7.25-14.54,0-26.45-3.63-35.74-10.9Z"/>
        <path class="cls-1" d="M682.25,1579c-5.06-12.14-12.14-22.68-21.25-31.6h-8.97v31.6h-22.49v-97.98h38.23c11.96,0,20.79,2.9,26.5,8.69s8.56,13.62,8.56,23.46c0,13.71-5.93,23.14-17.8,28.29,9.48,10.12,17.25,22.63,23.32,37.54h-26.08ZM675.01,1523.87c2.62-2.25,3.93-5.45,3.93-9.59s-1.24-7.11-3.73-9.45c-2.48-2.35-6.21-3.52-11.18-3.52h-12.01v25.94h11.59c4.97,0,8.76-1.13,11.39-3.38Z"/>
        <path class="cls-1" d="M720.78,1481.02h23.6v97.98h-23.6v-97.98Z"/>
        <path class="cls-1" d="M799.3,1481.02h23.6v77.42h44.57v20.56h-68.17v-97.98Z"/>
        <path class="cls-1" d="M917.17,1481.02h22.08l35.88,97.98h-24.01l-5.8-17.66h-34.22l-5.8,17.66h-24.15l36.02-97.98ZM939.25,1542.02l-10.9-33.12h-.28l-10.76,33.12h21.94Z"/>
        <path class="cls-1" d="M987.72,1481.02h22.08l40.16,60.58.28-.14v-60.44h22.77v97.98h-22.63l-39.74-59.06h-.28v59.06h-22.63v-97.98Z"/>
        <path class="cls-1" d="M1149.21,1579c-5.06-14.08-13.2-27.28-24.43-39.61l-9.11,11.32v28.29h-23.05v-97.98h23.05v38.78h.28l29.39-38.78h29.26l-34.36,41.54c7.27,7.73,14.08,16.67,20.42,26.84,6.35,10.17,11.22,20.03,14.63,29.6h-26.08Z"/>
        <path class="cls-1" d="M1218.02,1481.02h22.08l35.88,97.98h-24.01l-5.8-17.66h-34.22l-5.8,17.66h-24.15l36.02-97.98ZM1240.1,1542.02l-10.9-33.12h-.28l-10.76,33.12h21.94Z"/>
        <path class="cls-1" d="M1319.58,1564.37l28.29-29.81c3.86-4.14,6.74-7.8,8.62-10.97,1.89-3.17,2.78-6.46,2.69-9.87-.09-2.85-1.13-5.24-3.11-7.18-1.98-1.93-4.94-2.9-8.9-2.9-6.44,0-12.6,2.48-18.49,7.45l-10.49-18.08c9.48-6.72,20.15-10.07,32.02-10.07,9.75,0,17.48,2.48,23.18,7.45,5.7,4.97,8.56,11.64,8.56,20.01,0,11.13-5.2,22.08-15.59,32.84l-14.77,15.04.14.41h31.05v20.29h-62.93l-.28-14.63Z"/>
        <path class="cls-1" d="M1410.66,1567.34c-6.72-8.6-10.07-20.54-10.07-35.81s3.33-26.61,10-35.4c6.67-8.79,15.99-13.18,27.95-13.18s21.02,4.3,27.74,12.9c6.72,8.6,10.07,20.49,10.07,35.67s-3.31,26.86-9.94,35.6-15.92,13.11-27.88,13.11-21.16-4.3-27.88-12.9ZM1449.37,1552.3c2.62-4.65,3.93-11.57,3.93-20.77,0-8.46-1.27-15.18-3.79-20.15-2.53-4.97-6.19-7.45-10.97-7.45s-8.21,2.32-10.83,6.97c-2.62,4.65-3.93,11.52-3.93,20.63,0,8.56,1.26,15.32,3.79,20.29,2.53,4.97,6.19,7.45,10.97,7.45s8.21-2.32,10.83-6.97Z"/>
        <path class="cls-1" d="M1489.25,1564.37l28.29-29.81c3.86-4.14,6.74-7.8,8.62-10.97,1.89-3.17,2.78-6.46,2.69-9.87-.09-2.85-1.13-5.24-3.11-7.18-1.98-1.93-4.94-2.9-8.9-2.9-6.44,0-12.6,2.48-18.49,7.45l-10.49-18.08c9.48-6.72,20.15-10.07,32.02-10.07,9.75,0,17.48,2.48,23.18,7.45,5.7,4.97,8.56,11.64,8.56,20.01,0,11.13-5.2,22.08-15.59,32.84l-14.77,15.04.14.41h31.05v20.29h-62.93l-.28-14.63Z"/>
        <path class="cls-1" d="M1631.8,1525.8c5.89,5.47,8.83,12.95,8.83,22.42,0,10.03-3.15,17.87-9.45,23.53-6.3,5.66-14.61,8.49-24.91,8.49-11.96,0-21.21-4.16-27.74-12.49s-9.8-19.62-9.8-33.88c0-7.91.83-14.93,2.48-21.04,1.66-6.12,3.82-11.02,6.49-14.7s5.87-6.72,9.59-9.11c3.73-2.39,7.43-4.02,11.11-4.9s7.59-1.31,11.73-1.31c9.75,0,18.31,1.98,25.67,5.93l-8.69,18.63c-5.7-3.22-11.45-4.83-17.25-4.83-5.34,0-9.5,1.66-12.49,4.97-2.99,3.31-4.95,8.46-5.87,15.46l.28.14c5.34-3.68,11.45-5.52,18.35-5.52,8.56,0,15.78,2.74,21.67,8.21ZM1615.24,1556.92c2.21-2.3,3.31-5.24,3.31-8.83,0-3.86-1.2-6.99-3.59-9.38-2.39-2.39-5.47-3.59-9.25-3.59-5.7,0-10.58,2.12-14.63,6.35.55,5.8,2.21,10.4,4.97,13.8,2.76,3.4,6.26,5.11,10.49,5.11,3.59,0,6.49-1.15,8.69-3.45Z"/>
      </g>
    </g>
  </g>
</svg>